<?xml version="1.0" encoding="UTF-8" standalone="no"?>
<svg width="28px" height="16px" viewBox="0 0 28 16" version="1.1" xmlns="http://www.w3.org/2000/svg" xmlns:xlink="http://www.w3.org/1999/xlink">
    <!-- Generator: Sketch 42 (36781) - http://www.bohemiancoding.com/sketch -->
    <title>Twitter Button Small</title>
    <desc>Created with Sketch.</desc>
    <defs></defs>
    <g id="Welcome" stroke="none" stroke-width="1" fill="none" fill-rule="evenodd">
        <g id="Landing-page" transform="translate(-1257.000000, -285.000000)">
            <g id="Group-3-Copy-4" transform="translate(1226.000000, 285.000000)">
                <g id="Group-2">
                    <g id="Twitter-Button-Small" transform="translate(31.387755, 0.000000)">
                        <rect id="Rectangle-31" fill="#59ADEB" x="0" y="0" width="27.1836735" height="15.4285714" rx="1.76326531"></rect>
                        <path d="M19.501331,4.09092262 C19.0664955,4.28159311 18.5991577,4.41047434 18.1086697,4.46835037 C18.6092268,4.17171088 18.9937743,3.70201041 19.1747884,3.14227741 C18.7062458,3.41696881 18.1873291,3.61642988 17.6349922,3.72390179 C17.1926981,3.25805783 16.5625051,2.96703297 15.86507,2.96703297 C14.2999146,2.96703297 13.1493418,4.41084297 13.5030796,5.91009034 C11.4878273,5.81016131 9.70109458,4.85587311 8.50516786,3.40579627 C7.86998329,4.48286901 8.17569921,5.89242411 9.25555888,6.60585046 C8.85813105,6.59343022 8.48414038,6.48558967 8.15728224,6.30600666 C8.13097639,7.41651195 8.93601589,8.45490614 10.1021083,8.68652371 C9.76084932,8.77831437 9.38705947,8.79932669 9.00713062,8.72755586 C9.31562917,9.67977403 10.2111757,10.3727552 11.2722455,10.3920661 C10.2528004,11.181772 8.96883366,11.5345011 7.6823425,11.3846359 C8.75540338,12.0646864 10.0299895,12.4615385 11.3993283,12.4615385 C15.9012154,12.4615385 18.444679,8.70282882 18.2913764,5.33167027 C18.7651973,4.99374341 19.1762514,4.57159714 19.501331,4.09092262 L19.501331,4.09092262 Z" id="twitter-icon" fill="#FFFFFF"></path>
                    </g>
                </g>
            </g>
        </g>
    </g>
</svg>