<?xml version="1.0" encoding="UTF-8" standalone="no"?>
<svg width="28px" height="16px" viewBox="0 0 28 16" version="1.1" xmlns="http://www.w3.org/2000/svg" xmlns:xlink="http://www.w3.org/1999/xlink">
    <!-- Generator: Sketch 42 (36781) - http://www.bohemiancoding.com/sketch -->
    <title>Google Plus Button Small</title>
    <desc>Created with Sketch.</desc>
    <defs></defs>
    <g id="Welcome" stroke="none" stroke-width="1" fill="none" fill-rule="evenodd">
        <g id="Landing-page" transform="translate(-1288.000000, -285.000000)">
            <g id="Group-3-Copy-4" transform="translate(1226.000000, 285.000000)">
                <g id="Group-2">
                    <g id="Google-Plus-Button-Small" transform="translate(62.244898, 0.000000)">
                        <rect id="Rectangle-31" fill="#BD4C3A" x="0" y="0" width="27.1836735" height="15.4285714" rx="1.76326531"></rect>
                        <path d="M8.86424135,10.6927303 C8.86424135,10.3846138 8.95017921,10.0993251 9.12205752,9.83685545 C9.29393582,9.57438584 9.5227816,9.35566444 9.8086017,9.1806847 C10.3145805,8.86876429 11.0947805,8.67857177 12.1492249,8.61010144 C12.025627,8.45033732 11.9338956,8.30959486 11.8740279,8.18786982 C11.8141601,8.06614478 11.7842267,7.92730425 11.7842267,7.77134404 C11.7842267,7.63440337 11.8247817,7.47273973 11.9058928,7.28634827 C11.7282208,7.3015639 11.5969001,7.3091716 11.5119265,7.3091716 C10.9402863,7.3091716 10.4584549,7.12563582 10.0664179,6.75855875 C9.67438084,6.39148168 9.47836526,5.92646097 9.47836526,5.36348267 C9.47836526,5.05156226 9.54788803,4.74915616 9.68693564,4.45625528 C9.82598326,4.16335441 10.0171709,3.91420221 10.2605042,3.70879121 C10.5579116,3.45773332 10.9103534,3.27134465 11.3178402,3.14961961 C11.7253269,3.02789457 12.1453603,2.96703297 12.5779529,2.96703297 L14.9996868,2.96703297 L14.200167,3.46914624 L13.4412026,3.46914624 C13.7270227,3.70879241 13.9433157,3.96174846 14.0900882,4.22802198 C14.2368607,4.4942955 14.3102458,4.79860353 14.3102458,5.1409552 C14.3102458,5.41483653 14.2629317,5.66113585 14.1683021,5.87986052 C14.0736725,6.0985852 13.9597324,6.27546424 13.8264784,6.41050296 C13.6932244,6.54554167 13.5590069,6.66916681 13.4238217,6.78138208 C13.2886365,6.89359735 13.1737308,7.01056575 13.0791012,7.13229079 C12.9844716,7.25401582 12.9371575,7.37954289 12.9371575,7.50887574 C12.9371575,7.64581641 12.9989555,7.77990213 13.1225534,7.91113694 C13.2461513,8.04237175 13.3958183,8.17170266 13.5715591,8.29913356 C13.7472998,8.42656446 13.9220723,8.56635596 14.0958818,8.71851226 C14.2696914,8.87066855 14.4183928,9.06846877 14.5419907,9.31191885 C14.6655886,9.55536893 14.7273866,9.8254423 14.7273866,10.1221471 C14.7273866,10.4644988 14.6346896,10.7935318 14.4492928,11.1092561 C14.1711975,11.5733328 13.7637169,11.9147284 13.2268386,12.1334531 C12.6899603,12.3521778 12.1144662,12.4615385 11.5003393,12.4615385 C10.990498,12.4615385 10.5144602,12.3826086 10.0722115,12.2247464 C9.62996282,12.0668842 9.29876408,11.8053695 9.07860536,11.4401944 C8.9356953,11.21196 8.86424135,10.9628078 8.86424135,10.6927303 Z M9.941855,10.430262 C9.941855,10.6965356 10.0094466,10.9314233 10.1446318,11.1349324 C10.279817,11.3384414 10.4565206,11.4963012 10.6747482,11.6085165 C10.8929757,11.7207318 11.122787,11.8044165 11.3641892,11.8595731 C11.6055913,11.9147298 11.8518177,11.9423077 12.1028759,11.9423077 C12.3268971,11.9423077 12.5422246,11.9175827 12.7488648,11.8681319 C12.955505,11.8186811 13.1466926,11.744506 13.3224333,11.6456044 C13.4981741,11.5467028 13.6391508,11.4078623 13.7453677,11.2290786 C13.8515846,11.050295 13.9046923,10.8429851 13.9046923,10.6071429 C13.9046923,10.5120452 13.891174,10.4188508 13.864137,10.3275571 C13.8370999,10.2362633 13.8090977,10.1563824 13.7801294,10.0879121 C13.7511612,10.0194418 13.6990191,9.94051186 13.6237017,9.85112003 C13.5483842,9.76172821 13.4914142,9.69516083 13.4527898,9.65141589 C13.4141655,9.60767096 13.3398147,9.54205454 13.2297354,9.45456467 C13.119656,9.3670748 13.0491676,9.31191896 13.0182682,9.28909552 C12.9873687,9.26627208 12.9072244,9.20921432 12.7778329,9.11792054 C12.6484413,9.02662676 12.577953,8.97717671 12.5663657,8.96956889 C12.5045667,8.96196108 12.4118697,8.95815723 12.2882718,8.95815723 C12.0835628,8.95815723 11.8807881,8.9714707 11.6799415,8.99809806 C11.479095,9.02472541 11.2714923,9.07227354 11.0571272,9.14074387 C10.8427621,9.20921421 10.6554369,9.29670276 10.4951459,9.40321217 C10.3348549,9.50972158 10.2025685,9.65141501 10.0982828,9.8282967 C9.99399708,10.0051784 9.941855,10.2058315 9.941855,10.430262 Z M10.5559789,4.75866441 C10.5559789,4.93364415 10.5752908,5.11908186 10.6139151,5.31498309 C10.6525395,5.51088433 10.7133719,5.70678262 10.7964142,5.90268385 C10.8794565,6.09858509 10.9798783,6.27451317 11.0976826,6.43047337 C11.2154868,6.58643358 11.3603259,6.71386257 11.5322042,6.81276416 C11.7040825,6.91166575 11.8904421,6.96111581 12.0912887,6.96111581 C12.2380612,6.96111581 12.3886938,6.92973404 12.5431912,6.86696957 C12.6976885,6.8042051 12.8251469,6.72147135 12.9255702,6.61876585 C13.1302792,6.40194313 13.2326322,6.09953702 13.2326322,5.71153846 C13.2326322,5.49091183 13.199802,5.25317118 13.1341406,4.99830938 C13.0684792,4.74344758 12.9748166,4.49714827 12.85315,4.25940406 C12.7314833,4.02165984 12.5682979,3.82481059 12.3635889,3.66885038 C12.1588799,3.51289018 11.9329309,3.43491124 11.6857352,3.43491124 C11.5235129,3.43491124 11.3641899,3.47199878 11.2077614,3.54617498 C11.0513328,3.62035117 10.92484,3.72020225 10.8282791,3.84573119 C10.6467447,4.07016173 10.5559789,4.37446976 10.5559789,4.75866441 Z M14.9591315,7.56022823 L14.9591315,6.94399831 L16.1873793,6.94399831 L16.1873793,5.70583263 L16.7957096,5.70583263 L16.7957096,6.94399831 L18.029751,6.94399831 L18.029751,7.56022823 L16.7957096,7.56022823 L16.7957096,8.80980558 L16.1873793,8.80980558 L16.1873793,7.56022823 L14.9591315,7.56022823 Z" id="icon" fill="#FFFFFF"></path>
                    </g>
                </g>
            </g>
        </g>
    </g>
</svg>