<?xml version="1.0" encoding="UTF-8" standalone="no"?>
<svg width="16px" height="16px" viewBox="0 0 16 16" version="1.1" xmlns="http://www.w3.org/2000/svg" xmlns:xlink="http://www.w3.org/1999/xlink">
    <!-- Generator: Sketch 42 (36781) - http://www.bohemiancoding.com/sketch -->
    <title>Search</title>
    <desc>Created with Sketch.</desc>
    <defs></defs>
    <g id="Welcome" stroke="none" stroke-width="1" fill="none" fill-rule="evenodd">
        <g id="Landing-page" transform="translate(-1338.000000, -12.000000)" fill="#777777">
            <g id="search" transform="translate(1153.000000, 7.000000)">
                <path d="M199.975851,18.3336908 L196.461486,14.8240311 C196.99157,13.9545108 197.296601,12.9336 197.296601,11.8411734 C197.296601,8.6679165 194.543326,5.91836735 191.365425,5.91836735 C188.188268,5.91836735 185.612245,8.49107751 185.612245,11.6645201 C185.612245,14.8379628 188.365521,17.5873262 191.542677,17.5873262 C192.599126,17.5873262 193.588616,17.3016346 194.439355,16.8052966 L197.972505,20.334089 C198.318269,20.679408 198.878856,20.679408 199.224248,20.334089 L200.100839,19.4591818 C200.446975,19.113677 200.321615,18.6790098 199.975851,18.3336908 L199.975851,18.3336908 Z M187.383098,11.6645201 C187.383098,9.46740708 189.166413,7.68638578 191.365611,7.68638578 C193.565925,7.68638578 195.52612,9.64406032 195.52612,11.8411734 C195.52612,14.0382864 193.742806,15.8193077 191.542863,15.8193077 C189.343293,15.8193077 187.383098,13.8616332 187.383098,11.6645201 L187.383098,11.6645201 Z" id="Search"></path>
            </g>
        </g>
    </g>
</svg>